<svg width="115" height="25" viewBox="0 0 115 25" fill="none" xmlns="http://www.w3.org/2000/svg">
<path d="M115 11.1062V9.0838H112.489V5.93966L112.404 5.96569L110.045 6.68745L109.999 6.70158V9.08391H106.275V7.75674C106.275 7.13877 106.414 6.66587 106.686 6.35049C106.956 6.03889 107.343 5.88047 107.837 5.88047C108.191 5.88047 108.558 5.96402 108.928 6.12877L109.021 6.17016V4.04025L108.977 4.02423C108.632 3.9003 108.163 3.83789 107.582 3.83789C106.85 3.83789 106.184 3.99731 105.604 4.31324C105.023 4.62963 104.566 5.08128 104.246 5.65554C103.927 6.22912 103.765 6.89159 103.765 7.6247V9.0838H102.016V11.1062H103.765V19.6264H106.275V11.1062H109.999V16.5207C109.999 18.7506 111.051 19.8806 113.125 19.8806C113.466 19.8806 113.825 19.8407 114.191 19.7625C114.564 19.6822 114.818 19.602 114.967 19.5163L115 19.4967V17.4556L114.898 17.5231C114.762 17.6139 114.592 17.6881 114.393 17.7433C114.194 17.7995 114.027 17.8276 113.897 17.8276C113.412 17.8276 113.052 17.6967 112.829 17.4382C112.603 17.1775 112.489 16.7215 112.489 16.0836V11.1062H115ZM96.4098 17.8279C95.4986 17.8279 94.7802 17.5258 94.2739 16.9306C93.7645 16.3325 93.5064 15.4796 93.5064 14.3961C93.5064 13.2782 93.7645 12.4033 94.2741 11.7945C94.7808 11.1898 95.4923 10.8829 96.3894 10.8829C97.2599 10.8829 97.9528 11.176 98.4492 11.7546C98.948 12.3362 99.2012 13.2041 99.2012 14.335C99.2012 15.4799 98.9632 16.3593 98.4937 16.9475C98.0275 17.5314 97.3264 17.8279 96.4098 17.8279ZM96.5214 8.82982C94.783 8.82982 93.4022 9.33922 92.4177 10.3439C91.4338 11.3486 90.935 12.7391 90.935 14.477C90.935 16.1277 91.4219 17.4554 92.3824 18.4227C93.3429 19.3903 94.65 19.8804 96.2672 19.8804C97.9524 19.8804 99.3057 19.3639 100.29 18.3453C101.274 17.3279 101.772 15.9506 101.772 14.2533C101.772 12.5768 101.304 11.2392 100.381 10.2784C99.458 9.31708 98.1591 8.82982 96.5214 8.82982ZM86.8873 8.82982C85.7048 8.82982 84.7266 9.1323 83.9793 9.72869C83.2275 10.3286 82.8462 11.1155 82.8462 12.0676C82.8462 12.5626 82.9285 13.0022 83.0905 13.3751C83.2535 13.7492 83.5057 14.0786 83.8407 14.3551C84.1732 14.6293 84.6865 14.9165 85.3667 15.2088C85.9385 15.444 86.3649 15.6431 86.6358 15.7999C86.9005 15.9537 87.0884 16.1082 87.1946 16.2587C87.2977 16.406 87.35 16.6076 87.35 16.8563C87.35 17.5646 86.8196 17.9093 85.7281 17.9093C85.3233 17.9093 84.8615 17.8247 84.3557 17.6581C83.8534 17.4939 83.3794 17.2536 82.9502 16.9454L82.846 16.8707V19.2877L82.8842 19.3055C83.2394 19.4695 83.6873 19.6078 84.2152 19.7166C84.742 19.8255 85.2207 19.8809 85.6366 19.8809C86.9198 19.8809 87.9532 19.5769 88.7072 18.977C89.466 18.3729 89.8506 17.5675 89.8506 16.5824C89.8506 15.8718 89.6435 15.2624 89.2355 14.7709C88.8302 14.2834 88.1268 13.8359 87.1457 13.4403C86.3641 13.1266 85.8634 12.8662 85.6568 12.6662C85.4577 12.4731 85.3566 12.2 85.3566 11.8541C85.3566 11.5476 85.4814 11.3019 85.7376 11.103C85.9958 10.9031 86.3552 10.8014 86.806 10.8014C87.2243 10.8014 87.6522 10.8675 88.0779 10.997C88.5031 11.1265 88.8767 11.2999 89.1885 11.5121L89.2911 11.5822V9.28938L89.2517 9.27247C88.964 9.1491 88.5847 9.04352 88.1239 8.95787C87.6652 8.87276 87.2492 8.82982 86.8873 8.82982ZM76.3015 17.8279C75.3905 17.8279 74.6718 17.5258 74.1657 16.9306C73.6562 16.3325 73.3985 15.4799 73.3985 14.3961C73.3985 13.2782 73.6565 12.4033 74.1662 11.7945C74.6724 11.1898 75.3838 10.8829 76.2814 10.8829C77.1515 10.8829 77.8445 11.176 78.341 11.7546C78.8399 12.3362 79.093 13.2041 79.093 14.335C79.093 15.4799 78.8548 16.3593 78.3853 16.9475C77.9191 17.5314 77.2184 17.8279 76.3015 17.8279ZM76.4134 8.82982C74.6745 8.82982 73.2936 9.33922 72.3097 10.3439C71.3258 11.3486 70.8266 12.7391 70.8266 14.477C70.8266 16.1283 71.3139 17.4554 72.2744 18.4227C73.2349 19.3903 74.5419 19.8804 76.1591 19.8804C77.844 19.8804 79.1977 19.3639 80.1817 18.3453C81.1655 17.3279 81.6642 15.9506 81.6642 14.2533C81.6642 12.5768 81.1963 11.2392 80.2731 10.2784C79.3494 9.31708 78.0507 8.82982 76.4134 8.82982ZM67.0158 10.9096V9.0838H64.5359V19.6262H67.0158V14.2334C67.0158 13.3164 67.2237 12.563 67.634 11.994C68.039 11.4317 68.5788 11.1468 69.2378 11.1468C69.4612 11.1468 69.712 11.1837 69.9835 11.2565C70.2523 11.329 70.447 11.4076 70.5618 11.4904L70.666 11.5659V9.06577L70.6258 9.04853C70.3949 8.95041 70.0682 8.90091 69.6548 8.90091C69.0316 8.90091 68.4739 9.10115 67.9962 9.49541C67.5769 9.84194 67.2739 10.3171 67.0422 10.9096H67.0158ZM60.0949 8.82982C58.9572 8.82982 57.9424 9.07378 57.0792 9.5547C56.2143 10.0367 55.5454 10.7249 55.0903 11.6C54.6371 12.4729 54.4071 13.4926 54.4071 14.6297C54.4071 15.6258 54.6301 16.5399 55.071 17.3456C55.5121 18.1525 56.1364 18.7839 56.9267 19.2217C57.7159 19.659 58.628 19.8808 59.6379 19.8808C60.8164 19.8808 61.8226 19.6451 62.6294 19.1805L62.662 19.1618V16.8898L62.5577 16.9659C62.1923 17.2321 61.7839 17.4446 61.3445 17.5977C60.9062 17.7506 60.5066 17.8279 60.1562 17.8279C59.1831 17.8279 58.4019 17.5235 57.8349 16.9232C57.2667 16.3221 56.9785 15.4781 56.9785 14.416C56.9785 13.3473 57.279 12.4816 57.8712 11.8428C58.4616 11.2059 59.2442 10.8829 60.1971 10.8829C61.0122 10.8829 61.8065 11.1589 62.558 11.704L62.662 11.7795V9.38561L62.6284 9.36669C62.3456 9.20839 61.9599 9.07768 61.4811 8.97856C61.0043 8.87966 60.538 8.82982 60.0949 8.82982ZM52.6991 9.08391H50.2192V19.6262H52.6991V9.08391ZM51.4846 4.5928C51.0764 4.5928 50.7204 4.73175 50.4279 5.00708C50.1343 5.2832 49.9853 5.63084 49.9853 6.04111C49.9853 6.44494 50.1325 6.78624 50.4234 7.05501C50.7124 7.323 51.0695 7.45883 51.4847 7.45883C51.8997 7.45883 52.2582 7.323 52.5506 7.05545C52.845 6.78624 52.9943 6.44505 52.9943 6.04111C52.9943 5.64519 52.849 5.30111 52.5627 5.01821C52.2767 4.73587 51.9138 4.5928 51.4846 4.5928ZM45.2971 8.30608V19.6262H47.8279V4.91553H44.3251L39.8728 15.8422L35.5522 4.91553H31.9067V19.6261H34.2851V8.30496H34.3667L38.9292 19.6262H40.7241L45.2154 8.30608H45.2971Z" fill="#706D6E"/>
<path d="M11.6661 11.6661H0V0H11.6661V11.6661Z" fill="#F1511B"/>
<path d="M24.547 11.6661H12.8811V0H24.547V11.6661Z" fill="#80CC28"/>
<path d="M11.6658 24.5515H0V12.8855H11.6658V24.5515Z" fill="#00ADEF"/>
<path d="M24.547 24.5515H12.8811V12.8855H24.547V24.5515Z" fill="#FBBC09"/>
</svg>
